# xmcd CD database file
#
# Track frame offsets:
#	150
#	19657
#	41525
#	62135
#	71095
#	95327
#	115997
#	128220
#	154135
#	177062
#
# Disc length: 2412 seconds
#
# Revision: 0
# Processed by: cddbd v1.5.1PL0 Copyright (c) Steve Scherf et al.
# Submitted via: CDex 1.51
#
DISCID=82096a0a
DTITLE=Chiki Sounds - 明日が静かにやってくる
DYEAR=2004
DGENRE=JPop
TTITLE0=子供みたいに
TTITLE1=the beach
TTITLE2=置き去りの日曜日
TTITLE3=a midnight ball room
TTITLE4=つぶての光
TTITLE5=novache
TTITLE6=the education of a new day
TTITLE7=trip of the 31th seat
TTITLE8=彼女の波長と彼の波長
TTITLE9=Hello,sunset
EXTD=YEAR: 2004
EXTT0=
EXTT1=
EXTT2=
EXTT3=
EXTT4=
EXTT5=
EXTT6=
EXTT7=
EXTT8=
EXTT9=
PLAYORDER=
